80's Superstars Live (2010) (DVD 1-3) 



01. C.C Catch - Heaven And Hell
02. Weather Girls - It's Raining Men
03. Alphaville - Forever Young
04. Ricchi E Poveri - Sara Perche Ti Amo
05. Savage - Don't Cry Tonight
06. Modern Talking - Brother Louie
07. F.R. David - Words
08. Boney M. - Daddy Cool
09. Ottawan - D.I.S.C.O
10. Dieter Bohlen - Magic Symphony
11. Sandra - Maria Magdalena
12. Ricardo Fogli - Storie Di Tutti I Giorni
13. Eddy Huntington - U.S.S.R.
14. Radiorama - Yeti
15. Sabrina - Boys
16. Scotch - Disco Band


Spotinformatie
Video: DVD5 - PAL 4:3
Menu : Yes
Audio: Mpeg

Categorie : Beeld 
Formaat : DVD5 
Bron : Retail
Cover : Yes 
Ondertitels : Geen
Thanks : Tuupje

Format : MPEG-PS
File size : 1 024 MiB
Duration : 23mn 25s
Overall bit rate : 6 112 Kbps

Video
ID : 224 (0xE0)
Format : MPEG Video
Format version : Version 2
Format profile : Main@Main
Format settings, Matrix : Default
Duration : 23mn 25s
Bit rate mode : Variable
Bit rate : 5 645 Kbps
Nominal bit rate : 6 000 Kbps
Width : 720 pixels
Height : 576 pixels
Display aspect ratio : 4/3
Frame rate : 25.000 fps
Standard : PAL
Colorimetry : 4:2:0
Scan type : Progressive
Bits/(Pixel*Frame) : 0.544
Stream size : 946 MiB (92%)

Audio
ID : 192 (0xC0)
Format : MPEG Audio
Format version : Version 1
Format profile : Layer 2
Duration : 23mn 25s
Bit rate mode : Constant
Bit rate : 224 Kbps
Channel(s) : 2 channels
Sampling rate : 48.0 KHz
Resolution : 16 bits
Video delay : -80ms
Stream size : 37.5 MiB (4%)

Menu
Format : DVD-Video


Weblink : http://www.amazon.de/gp/product/B0034A8A2S/ref=s9_simh_gw_p74_i7?pf_rd_m=A3JWKAKR8XB7XF&pf_rd_s=center-1&pf_rd_r=0DBSHG892A0V5CV 

*****************************************



Brought to you by 

Pioen
2Lions Team

meer zien??
Kom dan eens kijken op ons forum 
 
http://www.2lions-site.nl


2Lions the site to be for all your Dutch MOVIES and more

******************************************


DON T HIT AND RUN Niet gelijk afhaken als de FILM binnen is blijf seeden. 

Don`t quit after you finished the download, but keep seeding


There are fake torrents from uploaders who use our team name.
Those are not ours, or members from our team.
We 2Lions-Team are not responsible for the fake posts on our name

Wij 2Lions-Team zijn niet verantwoordelijk voor die zieke FAKE posten die op onze naam worden gedaan



Please check our site !!!
NEW SITE 
http://www.2lions-site.nl